<svg xmlns="http://www.w3.org/2000/svg" width="48" height="48" viewBox="0 0 48 48" fill="none">
  <!-- Grape berries -->
  <circle cx="24" cy="16" r="4.5" fill="#8B1A1A"/>
  <circle cx="17" cy="20" r="4.5" fill="#8B1E2D"/>
  <circle cx="31" cy="20" r="4.5" fill="#8B1E2D"/>
  <circle cx="20.5" cy="27" r="4.5" fill="#6E1724"/>
  <circle cx="27.5" cy="27" r="4.5" fill="#6E1724"/>
  <circle cx="14" cy="25" r="4.5" fill="#8B1A1A"/>
  <circle cx="34" cy="25" r="4.5" fill="#8B1A1A"/>
  <circle cx="24" cy="33" r="4.5" fill="#5A1220"/>
  <circle cx="17.5" cy="32" r="4.5" fill="#6E1724"/>
  <circle cx="30.5" cy="32" r="4.5" fill="#6E1724"/>
  <!-- Highlights on berries -->
  <circle cx="22.5" cy="14.5" r="1.2" fill="#B02840" opacity="0.5"/>
  <circle cx="15.5" cy="18.5" r="1.2" fill="#B02840" opacity="0.5"/>
  <circle cx="29.5" cy="18.5" r="1.2" fill="#B02840" opacity="0.5"/>
  <!-- Stem -->
  <path d="M24 11 C24 8 26 5 28 3" stroke="#9A6F28" stroke-width="2" stroke-linecap="round" fill="none"/>
  <!-- Leaf -->
  <path d="M28 3 C30 5 33 5 34 3 C33 6 30 7 28 5" fill="#4A7A3A"/>
</svg>
